<mxfile host="app.diagrams.net" agent="Mozilla/5.0 (Windows NT 10.0; Win64; x64) AppleWebKit/537.36 (KHTML, like Gecko) Chrome/131.0.0.0 Safari/537.36 Edg/131.0.0.0" version="24.8.6">
  <diagram name="Página-1" id="PYql78lwzys24BfeM8Rj">
    <mxGraphModel dx="1426" dy="827" grid="1" gridSize="10" guides="1" tooltips="1" connect="1" arrows="1" fold="1" page="1" pageScale="1" pageWidth="827" pageHeight="1169" math="0" shadow="0">
      <root>
        <mxCell id="0" />
        <mxCell id="1" parent="0" />
        <mxCell id="D_wZLNYS5w4y16ffLb7D-1" value="Mapa Mental: Predicados, Cuantificadores y Cuantificación Múltiple" style="ellipse;whiteSpace=wrap;html=1;fillColor=#dae8fc;strokeColor=#6c8ebf;" vertex="1" parent="1">
          <mxGeometry x="740" y="50" width="160" height="80" as="geometry" />
        </mxCell>
        <mxCell id="D_wZLNYS5w4y16ffLb7D-2" value="Predicados" style="ellipse;whiteSpace=wrap;html=1;fillColor=#d5e8d4;strokeColor=#82b366;" vertex="1" parent="1">
          <mxGeometry x="300" y="200" width="120" height="60" as="geometry" />
        </mxCell>
        <mxCell id="D_wZLNYS5w4y16ffLb7D-3" value="Definición: Afirmación sobre un sujeto indeterminado que describe una propiedad&#xa;Ejemplos específicos:&#xa;P(x): &#39;x es un número entero&#39;&#xa;Q(y): &#39;y es un color&#39;&#xa;R(z): &#39;z es un planeta del sistema solar&#39;" style="text;whiteSpace=wrap;html=1;fillColor=#ffffff;strokeColor=#82b366;" vertex="1" parent="1">
          <mxGeometry x="100" y="300" width="220" height="140" as="geometry" />
        </mxCell>
        <mxCell id="D_wZLNYS5w4y16ffLb7D-4" style="edgeStyle=orthogonalEdgeStyle;rounded=0;orthogonalLoop=1;html=1;strokeColor=#82b366;" edge="1" parent="1" source="D_wZLNYS5w4y16ffLb7D-1" target="D_wZLNYS5w4y16ffLb7D-2">
          <mxGeometry relative="1" as="geometry" />
        </mxCell>
        <mxCell id="D_wZLNYS5w4y16ffLb7D-5" style="edgeStyle=orthogonalEdgeStyle;rounded=0;orthogonalLoop=1;html=1;strokeColor=#82b366;" edge="1" parent="1" source="D_wZLNYS5w4y16ffLb7D-2" target="D_wZLNYS5w4y16ffLb7D-3">
          <mxGeometry relative="1" as="geometry" />
        </mxCell>
        <mxCell id="D_wZLNYS5w4y16ffLb7D-6" value="Cuantificadores" style="ellipse;whiteSpace=wrap;html=1;fillColor=#f8cecc;strokeColor=#b85450;" vertex="1" parent="1">
          <mxGeometry x="780" y="200" width="150" height="60" as="geometry" />
        </mxCell>
        <mxCell id="D_wZLNYS5w4y16ffLb7D-7" value="Universal (∀)&#xa;Definición: Para todo elemento en un universo de referencia&#xa;Ejemplos: ∀x P(x): &#39;Para todo x, x es un número entero&#39;" style="text;whiteSpace=wrap;html=1;fillColor=#ffffff;strokeColor=#b85450;" vertex="1" parent="1">
          <mxGeometry x="630" y="380" width="240" height="100" as="geometry" />
        </mxCell>
        <mxCell id="D_wZLNYS5w4y16ffLb7D-8" value="Existencial (∃)&#xa;Definición: Existe al menos un elemento en un universo de referencia&#xa;Ejemplos: ∃x P(x): &#39;Existe un x tal que x es un número entero&#39;" style="text;whiteSpace=wrap;html=1;fillColor=#ffffff;strokeColor=#b85450;" vertex="1" parent="1">
          <mxGeometry x="950" y="380" width="240" height="100" as="geometry" />
        </mxCell>
        <mxCell id="D_wZLNYS5w4y16ffLb7D-9" style="edgeStyle=orthogonalEdgeStyle;rounded=0;orthogonalLoop=1;html=1;strokeColor=#b85450;" edge="1" parent="1" source="D_wZLNYS5w4y16ffLb7D-1" target="D_wZLNYS5w4y16ffLb7D-6">
          <mxGeometry relative="1" as="geometry" />
        </mxCell>
        <mxCell id="D_wZLNYS5w4y16ffLb7D-10" style="edgeStyle=orthogonalEdgeStyle;rounded=0;orthogonalLoop=1;html=1;strokeColor=#b85450;" edge="1" parent="1" source="D_wZLNYS5w4y16ffLb7D-6" target="D_wZLNYS5w4y16ffLb7D-7">
          <mxGeometry relative="1" as="geometry" />
        </mxCell>
        <mxCell id="D_wZLNYS5w4y16ffLb7D-11" style="edgeStyle=orthogonalEdgeStyle;rounded=0;orthogonalLoop=1;html=1;strokeColor=#b85450;" edge="1" parent="1" source="D_wZLNYS5w4y16ffLb7D-6" target="D_wZLNYS5w4y16ffLb7D-8">
          <mxGeometry relative="1" as="geometry" />
        </mxCell>
        <mxCell id="D_wZLNYS5w4y16ffLb7D-12" value="Negación de Cuantificadores" style="ellipse;whiteSpace=wrap;html=1;fillColor=#ffe6cc;strokeColor=#d79b00;" vertex="1" parent="1">
          <mxGeometry x="1220" y="200" width="180" height="60" as="geometry" />
        </mxCell>
        <mxCell id="D_wZLNYS5w4y16ffLb7D-13" value="Regla: ¬∀x P(x) ⇔ ∃x ¬P(x)&#xa;Ejemplo: No todos los gatos son negros → Hay al menos un gato que no es negro" style="text;whiteSpace=wrap;html=1;fillColor=#ffffff;strokeColor=#d79b00;" vertex="1" parent="1">
          <mxGeometry x="1220" y="300" width="240" height="100" as="geometry" />
        </mxCell>
        <mxCell id="D_wZLNYS5w4y16ffLb7D-14" style="edgeStyle=orthogonalEdgeStyle;rounded=0;orthogonalLoop=1;html=1;strokeColor=#d79b00;" edge="1" parent="1" source="D_wZLNYS5w4y16ffLb7D-1" target="D_wZLNYS5w4y16ffLb7D-12">
          <mxGeometry relative="1" as="geometry" />
        </mxCell>
        <mxCell id="D_wZLNYS5w4y16ffLb7D-15" style="edgeStyle=orthogonalEdgeStyle;rounded=0;orthogonalLoop=1;html=1;strokeColor=#d79b00;" edge="1" parent="1" source="D_wZLNYS5w4y16ffLb7D-12" target="D_wZLNYS5w4y16ffLb7D-13">
          <mxGeometry relative="1" as="geometry" />
        </mxCell>
        <mxCell id="D_wZLNYS5w4y16ffLb7D-16" value="Cuantificación Múltiple" style="ellipse;whiteSpace=wrap;html=1;fillColor=#f5f5a0;strokeColor=#d6b656;" vertex="1" parent="1">
          <mxGeometry x="500" y="600" width="160" height="60" as="geometry" />
        </mxCell>
        <mxCell id="D_wZLNYS5w4y16ffLb7D-17" value="Ejemplo: ∀x ∃y (x + y = 0)&#xa;Cambio de orden: ∃y ∀x (x + y = 0)" style="text;whiteSpace=wrap;html=1;fillColor=#ffffff;strokeColor=#d6b656;" vertex="1" parent="1">
          <mxGeometry x="350" y="700" width="240" height="100" as="geometry" />
        </mxCell>
        <mxCell id="D_wZLNYS5w4y16ffLb7D-18" style="edgeStyle=orthogonalEdgeStyle;rounded=0;orthogonalLoop=1;html=1;strokeColor=#d6b656;" edge="1" parent="1" source="D_wZLNYS5w4y16ffLb7D-1" target="D_wZLNYS5w4y16ffLb7D-16">
          <mxGeometry relative="1" as="geometry" />
        </mxCell>
        <mxCell id="D_wZLNYS5w4y16ffLb7D-19" style="edgeStyle=orthogonalEdgeStyle;rounded=0;orthogonalLoop=1;html=1;strokeColor=#d6b656;" edge="1" parent="1" source="D_wZLNYS5w4y16ffLb7D-16" target="D_wZLNYS5w4y16ffLb7D-17">
          <mxGeometry relative="1" as="geometry" />
        </mxCell>
      </root>
    </mxGraphModel>
  </diagram>
</mxfile>
